<?xml version="1.0" standalone="no"?>
<!DOCTYPE svg PUBLIC "-//W3C//DTD SVG 20010904//EN"
 "http://www.w3.org/TR/2001/REC-SVG-20010904/DTD/svg10.dtd">
<svg version="1.0" xmlns="http://www.w3.org/2000/svg"
 width="880.000000pt" height="647.000000pt" viewBox="0 0 880.000000 647.000000"
 preserveAspectRatio="xMidYMid meet">

<g transform="translate(0.000000,647.000000) scale(0.100000,-0.100000)"
fill="#000000" stroke="none">
<path d="M3290 5099 c-542 -14 -1109 -51 -1295 -85 -51 -9 -178 -56 -217 -81
-21 -13 -40 -23 -44 -23 -14 0 -124 -95 -168 -145 -167 -194 -223 -398 -278
-1020 -17 -193 -17 -1447 0 -1640 34 -384 76 -628 131 -771 33 -87 101 -196
160 -257 115 -122 287 -212 451 -236 157 -23 518 -51 860 -68 519 -25 2502
-25 3020 0 342 17 703 45 860 68 272 40 510 232 611 492 66 173 120 547 139
962 13 285 13 1010 0 1285 -23 489 -83 849 -171 1022 -112 220 -336 382 -579
417 -256 37 -694 64 -1300 81 -381 11 -1767 10 -2180 -1z m414 -1128 c50 -26
154 -81 231 -121 77 -40 232 -121 345 -180 113 -59 277 -144 365 -190 88 -46
196 -102 240 -125 118 -62 265 -139 488 -255 108 -56 197 -106 197 -110 0 -5
-60 -38 -132 -75 -73 -37 -160 -82 -193 -100 -33 -18 -159 -83 -280 -145 -121
-62 -251 -129 -290 -150 -38 -21 -137 -72 -220 -115 -82 -43 -204 -106 -270
-140 -483 -251 -570 -295 -584 -295 -8 0 -11 312 -11 1025 0 741 3 1025 11
1025 6 0 52 -22 103 -49z"/>
</g>
</svg>
